<svg id="geekmd_icon" data-name="geekmd_icon" xmlns="http://www.w3.org/2000/svg" viewBox="15 15 130 130">
    <defs>
        <style>
            .tie-knot-blue{
                fill:#007bff;
            }
            .tie-body-blue{
                fill:#007bff;
            }
            .glasses-blue{
                fill:#007bff;
            }
            .negative-space-blue{
                fill:#007bff;
            }
            .tie-knot-black{
                fill:#0;
            }
            .tie-body-black{
                fill:#0;
            }
            .glasses-black{
                fill:#0;
            }
            .negative-space-black{
                fill:#0;
            }
            .tie-knot-white{
                fill:#ffffff;
            }
            .tie-body-white{
                fill:#ffffff;
            }
            .glasses-white{
                fill:#ffffff;
            }
            .negative-space-white{
                fill:#ffffff;
            }
            .tie-knot-red{
                fill:#b71f1f;
            }
            .tie-body-red{
                fill:#b71f1f;
            }
            .glasses-red{
                fill:#b71f1f;
            }
            .negative-space-red{
                fill:#b71f1f;
            }
            .tie-knot-dark{
                fill:#343a40;
            }
            .tie-body-dark{
                fill:#343a40;
            }
            .glasses-dark{
                fill:#343a40;
            }
            .negative-space-dark{
                fill:#343a40;
            }


        </style>
    </defs>
    <title>GeekMD Icon</title>
    <path class="tie-knot-blue" d="M74.94,110.47h7.81a2,2,0,0,0,2-1.82l.33-4.16a1.67,1.67,0,0,0-1.69-1.82h-9a1.67,1.67,0,0,0-1.68,1.82l.32,4.16A2,2,0,0,0,74.94,110.47Z"/>
    <path class="tie-body-blue" d="M87.83,132.65,84.2,114.17a2.11,2.11,0,0,0-1.93-1.68H75.42a2.11,2.11,0,0,0-1.93,1.68l-3.62,18.48a3.5,3.5,0,0,0,.85,2.84l7,6.83a1.69,1.69,0,0,0,2.36,0L87,135.49A3.51,3.51,0,0,0,87.83,132.65Z"/>
    <path class="negative-space-dark" d="M78.85,20.87A61.85,61.85,0,0,0,33.06,124.3,27,27,0,0,1,59.87,99.93h38a27,27,0,0,1,26.8,24.37A61.85,61.85,0,0,0,78.85,20.87Zm9.75,74H69.09a20.2,20.2,0,0,1-20.2-20.2V70.07h3.39V66H48.89V63.84A20.2,20.2,0,0,1,68.16,43.68a2.63,2.63,0,0,1-.44-.32c-3.66-3.4-.44-11.83-.44-11.83-.6,4.93,4.94,9,4.94,9-2.54-3,.33-7.6.33-7.6,2.21,10.57,16.86,10.74,16.86,10.74l.1,0a20.2,20.2,0,0,1,19.3,20.16V66h-3.39v4h3.39v4.61A20.2,20.2,0,0,1,88.6,94.88Z"/>
    <path class="glasses-dark" d="M99.36,58.21H85.23a4.71,4.71,0,0,0-4.71,4.71V66H77.18V62.92a4.72,4.72,0,0,0-4.72-4.71H58.34a4.71,4.71,0,0,0-4.71,4.71V74.54a4.71,4.71,0,0,0,4.71,4.71H72.46a4.72,4.72,0,0,0,4.72-4.71V70.07h3.34v4.47a4.71,4.71,0,0,0,4.71,4.71H99.36a4.71,4.71,0,0,0,4.71-4.71V62.92A4.71,4.71,0,0,0,99.36,58.21ZM73.14,74.54a.68.68,0,0,1-.68.67H58.34a.67.67,0,0,1-.67-.67V62.92a.67.67,0,0,1,.67-.67H72.46a.68.68,0,0,1,.68.67Zm26.89,0a.67.67,0,0,1-.67.67H85.23a.67.67,0,0,1-.67-.67V62.92a.67.67,0,0,1,.67-.67H99.36a.67.67,0,0,1,.67.67Z"/>
</svg>